<svg id="Layer_2" data-name="Layer 2" xmlns="http://www.w3.org/2000/svg" viewBox="0 0 382.87 324.33"><defs><style>.cls-1{fill:#383838;}</style></defs><path class="cls-1" d="M63.5,198.5C51,234,45.34,283.37,58,303c20.07,31.12,104.63,23,119.27,20.22,17.2-3.24,49.48-9.29,53.1-9.92,17.33-3,51,.68,122.13,39.2,0,0-14.25,11.75-42.62,21.13-1.35.44-3.32,1.09-5.9,1.87a242.38,242.38,0,0,1-30.33,6.68c-12.85,1.92-46.51,3.37-91.15-1.68-1,.06-16.3,1.35-22.75,13.85-5.1,9.9-1.25,20.29.05,23.78a32.08,32.08,0,0,0,6.14,10.43c9.38,10.34,24.77,10.78,30.56,10.94,154.82,4.35,212.61-96.43,212.61-96.43,26.05-45.44,25.07-90,24.39-105.57C432.72,219.61,431,182,390,153c-59.91-42.38-119-48-168-22-31.88,16.92-74.52,69.92-75.77,70-6.79.56-19.27-17.71-24.77-26a2.17,2.17,0,0,0-3.89.57c-3.38,10.78-12.3,32-13.07,34.87,0,0-10,7-16,11Z" transform="translate(-50.87 -115.31)"/></svg>